Simulation
nRows=16
nColumns=15
endheader
time  TH_x TH_y TH_z SC_y  SC_z  SC_x  AC_y  AC_z  AC_x  GH_y  GH_z  GH_yy  EL_x  PS_y
5.745  0.000000  0.000000  0.000000  -37.69510008816534  33.01644228315464  20.581002441435704  40.89902618417807  -5.5367368763746505  43.090793955846095  -41.224131956300305  51.138503488249995  16.48977494522925  33.264616367300306  120.000000
5.80245  0.000000  0.000000  0.000000  -77.34381962779997  28.623499614128708  42.134558309192755  69.92596699669717  7.462172079142946  10.464645006897493  -10.566719532658906  54.748360621652154  -6.036523793838936  33.26745361121413  120.000000
5.8599  0.000000  0.000000  0.000000  -75.5833706561066  -28.03474085570732  31.22297914939942  79.09878491473765  21.889934659834605  8.582115299786368  -4.888347432988492  52.86049243155091  20.36730718385774  17.021356927916152  120.000000
5.91735  0.000000  0.000000  0.000000  -26.183039396569683  50.708709525472955  -18.564149740692596  44.16229874370039  26.228544038481342  29.675269931321612  -22.35493212352065  30.983830801586926  14.465418790581996  33.26579650447952  120.000000
5.9748  0.000000  0.000000  0.000000  -61.28886041273156  -17.213863872097413  -11.009123279947996  40.40705920014112  28.2471989942289  18.716402021817725  -5.174703313569404  18.390792805733895  45.68260591601435  5.063723008969935  120.000000
6.03225  0.000000  0.000000  0.000000  -33.708657374705766  -1.373943797012864  -28.824587249826745  80.44999753788576  21.696727581171455  7.564049989738559  -73.2288523235273  24.2465836297764  69.71204286274798  23.235930568623615  120.000000
6.089700000000001  0.000000  0.000000  0.000000  -54.92312619139793  26.035958920016157  36.13179208254417  27.290538348176753  10.88476357150851  25.96940323868834  -138.55299541846006  19.811688187775225  157.44669883558086  5.067436105827437  120.000000
6.14715  0.000000  0.000000  0.000000  -45.21455276008207  12.832416709591774  44.763507993868565  76.23361841975527  11.959598406787705  33.47468958099329  -135.5191018917737  21.19960512227018  113.15153032062706  11.249923266199849  120.000000
6.2046  0.000000  0.000000  0.000000  -62.012429157050484  20.900576942942624  33.82927247994455  58.052348896529594  -14.227704633829928  6.863655922517067  99.9769149603599  78.7330415927252  -97.20027433763387  7.570800612851511  120.000000
6.26205  0.000000  0.000000  0.000000  -53.87411081486331  20.803191448115435  25.22993761063321  32.201458992248604  26.957390325446656  32.11844759826877  -172.90573825245892  18.498153281058443  -170.36767801294772  29.23808543221519  120.000000
6.3195  0.000000  0.000000  0.000000  -32.58201540028088  2.7199675613366074  0.2556102042599542  48.39623444037281  -1.569267053245066  -10.994245252843838  62.22935253409204  83.83906192139594  -79.58592586949726  6.291726457507585  120.000000
6.37695  0.000000  0.000000  0.000000  -43.808103950652416  -7.669706024966873  -8.350907410765094  41.48860053348072  -8.790480995542952  12.460843685111884  69.52474340670221  63.669369088866475  -94.82979071387379  10.091061039346208  120.000000
6.4344  0.000000  0.000000  0.000000  -40.15123369831949  -1.296879087758622  3.2426087943757866  60.660411423411176  -6.104600340815179  -4.215997653312607  69.75299440882718  57.94693934211431  -57.397010058460346  22.80253530212412  120.000000
6.49185  0.000000  0.000000  0.000000  -28.419442474148767  -17.507833847555627  -10.205734728447986  39.375121078361815  -15.506623514059834  9.51899825991768  -4.7343563285481345  48.45802134833663  28.233041852694008  32.01476771364529  120.000000
6.549300000000001  0.000000  0.000000  0.000000  -32.76857316913914  -19.459362677069894  -4.4201366714299555  64.36670184502324  -15.08969294237784  4.593600899566234  -22.59792987182632  66.97605763205259  0.8313060517463902  14.183422738694306  120.000000
6.60675  0.000000  0.000000  0.000000  -57.36767978082996  4.16322638569178  18.160808248603452  68.04102885841223  -4.4964647837095475  17.911978961325673  -42.772312692496776  20.88381656812523  21.05240531114939  11.792256129473913  120.000000
